<svg version="1.2" xmlns="http://www.w3.org/2000/svg" viewBox="0 0 544 544" width="544" height="544">
	<title>icon</title>
	<style>
		.s1 { fill: #372aac }
		.s2 { fill: #372aac }
	</style>

	<path class="s1" d="m226 76l10 1 4 4-12 3-18 6-15 3-2 1 4 2 12 2 5 2-3 2-17 9-16 12-9 8-11 17-6 10 10-3-2 5-9 16-5 11-4 17-3 37-2-2-5-15-2-10v-24l-16 15-9 11-4 4 1-9 5-17 9-21 10-15 12-13 4-4-13 1-8 1h-11l-8-1 3-2 16-8 23-12 16-6 10-3-20-11-9-7-6-7-4-9 6 2 11 4 5 1h20l24-4 15-3z"/>
	<path class="s1" d="m172 188h1l1 5v8l-3 16v14l4 11v8l-7 21-10 21v5l10 3 8 3v15l7 7v9l5 11 6 21 5 3 2 1h10l16-6 17-8h3v14l5 13 8 19 2 7 1 15 14-8 28-15 6-3 2 1-16 12-14 10-13 10-10 9-21 21-8 7-26 26-1 2-2-1 12-21 12-17 14-19 6-8 2-10-1-22-4-17-5-10h-7l-19 6-5 1h-8l-8-3-5-6-3-19-4-10-2-3-1-10-7-4v-8l1-7-9-3-12-6-1-1v-7l7-16 6-13 2-8v-13l-4-17 1-9 5-12z"/>
	<path class="s2" d="m502 256l1 3-14 43-12 29-12 24-12 20-12 16-12 14-16 16-14 11-14 10-22 13-15 8-24 10-25 8-27 6-21 3 2-2 20-6 23-8 27-11 28-14 24-15 17-13 6-5-8-24-4-22-12-3-9-1-2-6-5-26v-5l4 4 5 12 5 15 1 1h14l5-1 4 10 6 22 5 12 2 2 8-7 8-8 7-8 13-16 13-18 9-15 9-16 12-25 10-26z"/>
	<path class="s2" d="m316 42l5 2 14 9 12 11 8 9 8 14 4 10 24 9 14 8 9 8-2 1-16-8-13-5-21-5-7-2-8-16-9-16-10-14-11-13z"/>
	<path class="s1" d="m210 42l17 4 36 8 21 7 17 8 3 3-11-2-24-5-26-4-15-5-10-6-8-7z"/>
	<path class="s2" d="m394 139l4 2 8 6 8 10 6 12 5 21 4 17-3-3-7-16-7-20-8-15-8-11z"/>
	<path class="s2" d="m406 215h2l3 13 3 37v13l-2-2-5-18-1-6z"/>
	<path class="s2" d="m388 266l1 3-3 14-5 19-2 13-1 18-2-3-1-5v-22l4-16 7-16z"/>
</svg>
